<?xml version="1.0" encoding="utf-8"?>
<!-- Generator: Adobe Illustrator 17.1.0, SVG Export Plug-In . SVG Version: 6.00 Build 0)  -->
<!DOCTYPE svg PUBLIC "-//W3C//DTD SVG 1.1//EN" "http://www.w3.org/Graphics/SVG/1.1/DTD/svg11.dtd">
<svg version="1.1" xmlns="http://www.w3.org/2000/svg" xmlns:xlink="http://www.w3.org/1999/xlink" x="0px" y="0px"
	 viewBox="0 0 306 230" enable-background="new 0 0 306 230" xml:space="preserve">
<g id="Layer_1">
</g>
<g id="Layer_2">
	<g>
		<path fill="#DC1F26" d="M236.588,161.207c0-1.266-0.028-2.37-0.085-3.312s-0.197-1.935-0.422-2.976
			c-0.226-1.04-0.527-1.898-0.907-2.574c-0.38-0.675-0.907-1.23-1.583-1.667c-0.675-0.436-1.491-0.653-2.447-0.653
			c-2.982,0-5.683,0.717-8.103,2.151v33.972c2.785,1.125,5.486,1.688,8.103,1.688c1.153,0,2.117-0.422,2.891-1.266
			s1.336-2.047,1.688-3.608c0.352-1.562,0.591-3.115,0.717-4.663c0.127-1.547,0.19-3.348,0.19-5.401c0-1.52-0.008-3.53-0.021-6.035
			C236.594,164.358,236.588,162.473,236.588,161.207z"/>
		<path fill="#DC1F26" d="M98.552,48.466c-2.42-1.435-5.121-2.152-8.103-2.152c-1.069,0-1.969,0.261-2.701,0.781
			c-0.732,0.521-1.281,1.281-1.646,2.279c-0.366,0.999-0.633,2.026-0.802,3.081c-0.168,1.055-0.268,2.3-0.295,3.735
			c-0.113,6.302-0.113,11.295,0,14.981c0.028,1.801,0.127,3.404,0.295,4.811c0.169,1.407,0.443,2.764,0.823,4.072
			c0.379,1.308,0.935,2.314,1.667,3.018c0.731,0.704,1.618,1.055,2.659,1.055c2.617,0,5.317-0.562,8.103-1.688V48.466z"/>
		<path fill="#DC1F26" d="M245.28,56.569c-0.028-1.435-0.112-2.687-0.253-3.756c-0.142-1.069-0.388-2.138-0.738-3.208
			c-0.353-1.069-0.894-1.884-1.625-2.447c-0.732-0.562-1.632-0.844-2.701-0.844c-1.097,0-2.019,0.295-2.764,0.886
			c-0.746,0.591-1.295,1.442-1.646,2.553c-0.353,1.112-0.599,2.202-0.739,3.271c-0.141,1.069-0.226,2.349-0.253,3.84v2.954h10.719
			V56.569z"/>
		<path fill="#DC1F26" d="M112.014,171.947c-0.619,0.408-1.365,0.971-2.237,1.688c-0.872,0.718-1.547,1.407-2.025,2.068
			c-0.479,0.661-0.901,1.47-1.266,2.426c-0.366,0.957-0.548,1.956-0.548,2.996c0,4.474,1.8,6.71,5.401,6.71
			c0.76,0,1.498-0.225,2.215-0.675c0.718-0.45,1.259-0.887,1.625-1.309c0.365-0.422,0.815-0.984,1.35-1.688
			c0.084-0.141,0.154-0.239,0.211-0.296V168.93c-0.45,0.31-1.196,0.788-2.236,1.435
			C113.462,171.012,112.632,171.539,112.014,171.947z"/>
		<path fill="#DC1F26" d="M193.712,156.354c-0.057-0.9-0.155-1.59-0.295-2.068c-0.142-0.478-0.338-1.034-0.591-1.667
			c-0.254-0.633-0.57-1.11-0.95-1.435c-0.38-0.323-0.858-0.598-1.435-0.823c-0.577-0.225-1.245-0.337-2.005-0.337
			c-0.759,0-1.428,0.112-2.004,0.337c-0.577,0.226-1.055,0.5-1.435,0.823c-0.38,0.324-0.696,0.802-0.95,1.435
			c-0.253,0.633-0.45,1.189-0.591,1.667c-0.141,0.479-0.239,1.168-0.295,2.068c-0.057,0.9-0.092,1.61-0.105,2.131
			c-0.015,0.521-0.021,1.302-0.021,2.342v16.205c0,1.041,0.007,1.821,0.021,2.342c0.014,0.521,0.049,1.231,0.105,2.131
			c0.056,0.901,0.154,1.59,0.295,2.068s0.338,1.033,0.591,1.667c0.254,0.633,0.57,1.111,0.95,1.435s0.857,0.598,1.435,0.822
			c0.576,0.226,1.245,0.338,2.004,0.338c0.76,0,1.428-0.112,2.005-0.338c0.576-0.225,1.055-0.499,1.435-0.822
			s0.696-0.802,0.95-1.435c0.253-0.634,0.449-1.188,0.591-1.667c0.14-0.479,0.238-1.167,0.295-2.068
			c0.056-0.899,0.091-1.61,0.105-2.131c0.014-0.521,0.021-1.301,0.021-2.342v-16.205c0-1.04-0.008-1.821-0.021-2.342
			C193.803,157.965,193.768,157.255,193.712,156.354z"/>
		<path fill="#DC1F26" d="M140.119,56.569c-0.028-1.435-0.113-2.687-0.253-3.756c-0.141-1.069-0.387-2.138-0.739-3.208
			c-0.352-1.069-0.894-1.884-1.625-2.447c-0.732-0.562-1.632-0.844-2.701-0.844c-1.097,0-2.019,0.295-2.764,0.886
			c-0.746,0.591-1.294,1.442-1.646,2.553c-0.352,1.112-0.598,2.202-0.738,3.271c-0.141,1.069-0.226,2.349-0.253,3.84v2.954h10.719
			V56.569z"/>
		<path fill="#DC1F26" d="M0,0v230h306V0H0z M154.594,38.212h10.423l7.217,20.636l7.216-20.636h10.255L178.9,64.123v1.097
			l10.804,27.008H178.9l-6.414-20.805l-7.09,20.805h-10.803l10.803-27.008v-1.097L154.594,38.212z M118.597,60.747
			c0.084-2.813,0.274-5.31,0.57-7.491c0.295-2.18,0.809-4.297,1.541-6.351c0.731-2.053,1.681-3.741,2.848-5.064
			c1.167-1.322,2.701-2.384,4.6-3.186c1.899-0.802,4.114-1.203,6.646-1.203c2.306,0,4.339,0.303,6.098,0.907
			c1.758,0.605,3.221,1.519,4.389,2.743c1.167,1.224,2.138,2.582,2.912,4.072c0.773,1.491,1.357,3.299,1.751,5.422
			c0.394,2.125,0.668,4.213,0.822,6.267s0.232,4.417,0.232,7.089v1.266H129.4v2.701c0,0.366,0,0.943,0,1.73
			c-0.057,1.042-0.063,2.118-0.021,3.229c0.042,1.112,0.091,2.202,0.147,3.271c0.056,1.069,0.211,2.089,0.464,3.06
			c0.253,0.971,0.562,1.822,0.928,2.553s0.879,1.308,1.541,1.73c0.661,0.422,1.441,0.633,2.342,0.633
			c1.125,0,2.053-0.217,2.785-0.654c0.731-0.436,1.272-1.09,1.625-1.962c0.352-0.872,0.597-1.744,0.738-2.616
			c0.141-0.872,0.225-1.969,0.253-3.292v-2.279h10.719v2.152c-0.254,5.768-1.674,10.128-4.262,13.082
			c-2.589,2.954-6.569,4.431-11.942,4.431c-2.617,0-4.889-0.451-6.815-1.351c-1.927-0.9-3.46-2.074-4.6-3.523
			c-1.14-1.449-2.062-3.306-2.764-5.571c-0.704-2.264-1.189-4.529-1.456-6.794c-0.268-2.264-0.429-4.902-0.485-7.913
			C118.512,65.473,118.512,63.11,118.597,60.747z M87.327,196.232c0,4.164-1.203,7.406-3.608,9.728
			c-2.405,2.321-5.704,3.481-9.896,3.481c-2.363,0-4.164-0.239-5.402-0.718v-7.68c0.985,0.196,1.885,0.295,2.701,0.295
			c3.601,0,5.402-2.096,5.402-6.287v-53.13h10.803V196.232z M87.327,133.819H76.523v-10.803h10.803V133.819z M87.749,92.987
			c-2.392,0-4.48-0.675-6.267-2.026c-1.787-1.35-3.165-3.179-4.136-5.486c-0.971-2.307-1.695-4.705-2.173-7.195
			c-0.479-2.49-0.774-5.169-0.886-8.039c-0.057-1.322-0.057-4.558,0-9.706c0.056-1.857,0.141-3.538,0.253-5.043
			c0.112-1.505,0.302-3.073,0.57-4.706c0.267-1.631,0.604-3.073,1.013-4.325c0.407-1.251,0.949-2.461,1.625-3.629
			c0.675-1.167,1.462-2.131,2.363-2.891c0.9-0.76,1.983-1.364,3.25-1.814c1.266-0.45,2.672-0.675,4.22-0.675
			c1.209,0,2.342,0.162,3.397,0.485c1.055,0.324,2.061,0.83,3.018,1.519c0.956,0.69,1.723,1.302,2.3,1.836
			c0.576,0.535,1.329,1.294,2.258,2.279V16.647h10.803v75.58H98.552v-4.895c-1.632,1.688-3.292,3.053-4.979,4.093
			S89.943,92.987,87.749,92.987z M118.175,195.938l-1.435-8.103c-0.563,1.126-1.02,1.998-1.371,2.616
			c-0.352,0.619-0.865,1.387-1.541,2.3c-0.675,0.915-1.35,1.618-2.025,2.11s-1.52,0.922-2.532,1.287s-2.125,0.549-3.333,0.549
			c-3.011,0-5.564-1.301-7.66-3.903s-3.144-5.535-3.144-8.799c0-2.616,0.443-4.993,1.329-7.132c0.886-2.138,1.821-3.847,2.806-5.127
			s2.63-2.603,4.938-3.967c2.307-1.364,4.051-2.301,5.233-2.807c1.182-0.507,3.235-1.336,6.161-2.49
			c0.506-0.196,0.886-0.352,1.139-0.464v-3.883c0-2.729-0.379-4.846-1.139-6.351s-2.181-2.258-4.262-2.258
			c-1.857,0-3.186,0.641-3.988,1.92c-0.802,1.28-1.259,3.046-1.372,5.296c-0.028,0.311-0.042,0.774-0.042,1.393H95.134
			c0.056-5.176,1.504-9.297,4.347-12.364c2.841-3.066,6.794-4.6,11.858-4.6c5.036,0,8.995,1.555,11.879,4.663
			c2.883,3.109,4.325,7.21,4.325,12.301v24.308c0,5.627,0.464,10.128,1.393,13.504H118.175z M166.536,160.827h-10.804v-1.52
			c-0.028-1.35-0.12-2.531-0.274-3.544c-0.154-1.014-0.408-2.026-0.76-3.039s-0.9-1.793-1.646-2.342
			c-0.746-0.549-1.653-0.823-2.722-0.823c-1.069,0-1.97,0.316-2.701,0.95c-0.732,0.633-1.287,1.54-1.667,2.722
			s-0.654,2.398-0.823,3.65c-0.169,1.252-0.268,2.694-0.295,4.325c-0.113,3.488-0.113,8.75,0,15.783
			c0.056,1.547,0.168,2.904,0.337,4.072c0.169,1.167,0.443,2.293,0.823,3.376s0.935,1.92,1.667,2.511
			c0.731,0.591,1.618,0.886,2.659,0.886c0.956,0,1.779-0.183,2.469-0.549c0.688-0.365,1.217-0.815,1.582-1.35
			s0.654-1.252,0.865-2.152s0.345-1.737,0.401-2.511c0.056-0.773,0.084-1.752,0.084-2.934v-1.308h10.804v1.393
			c-0.085,2.842-0.437,5.353-1.056,7.532c-0.619,2.181-1.555,4.087-2.806,5.719c-1.253,1.632-2.912,2.876-4.979,3.734
			c-2.068,0.857-4.523,1.287-7.364,1.287c-2.617,0-4.889-0.437-6.815-1.309c-1.927-0.871-3.468-2.011-4.621-3.418
			c-1.154-1.406-2.083-3.2-2.785-5.381c-0.704-2.18-1.189-4.36-1.456-6.541c-0.268-2.18-0.429-4.719-0.485-7.616
			c-0.084-2.335-0.084-4.685,0-7.048c0.056-2.869,0.218-5.401,0.485-7.596c0.267-2.194,0.76-4.382,1.477-6.562
			c0.717-2.18,1.646-3.967,2.785-5.359c1.139-1.393,2.672-2.524,4.6-3.396c1.927-0.872,4.199-1.309,6.815-1.309
			c5.683,0,9.762,1.533,12.238,4.6c2.475,3.067,3.798,7.61,3.967,13.631V160.827z M204.642,177.032
			c0,6.358-1.252,11.225-3.756,14.601s-6.653,5.064-12.449,5.064s-9.945-1.688-12.448-5.064c-2.505-3.376-3.756-8.242-3.756-14.601
			v-16.205c0-6.357,1.251-11.225,3.756-14.602c2.503-3.376,6.652-5.063,12.448-5.063s9.945,1.688,12.449,5.063
			c2.504,3.377,3.756,8.244,3.756,14.602V177.032z M201.076,89.738c-1.927-2.166-2.919-5.444-2.975-9.833V46.314h-5.402v-8.102
			h5.402V19.306h10.803v18.906h8.103v8.102h-8.103v31.523c0,2.167,0.296,3.756,0.887,4.769s1.786,1.519,3.587,1.519
			c0.787,0,1.997-0.14,3.629-0.422v8.778c-2.701,0.337-4.924,0.506-6.668,0.506C206.091,92.987,203.003,91.904,201.076,89.738z
			 M247.349,171.588c0,2.363-0.12,4.643-0.359,6.837s-0.675,4.431-1.308,6.71c-0.633,2.278-1.435,4.248-2.405,5.907
			c-0.971,1.66-2.266,3.018-3.883,4.072c-1.618,1.056-3.468,1.583-5.549,1.583c-2.194,0-4.136-0.521-5.824-1.562
			c-1.688-1.041-3.348-2.405-4.979-4.094v4.896h-10.803v-75.58h10.803v26.924c1.013-1.069,1.772-1.843,2.279-2.321
			c0.506-0.478,1.245-1.083,2.215-1.814c0.971-0.731,1.977-1.245,3.018-1.54c1.041-0.296,2.194-0.443,3.461-0.443
			c1.828,0,3.46,0.331,4.895,0.991c1.436,0.662,2.616,1.456,3.545,2.385s1.716,2.265,2.363,4.009
			c0.646,1.745,1.132,3.32,1.456,4.727c0.323,1.407,0.569,3.306,0.738,5.697s0.268,4.325,0.296,5.802
			c0.027,1.478,0.042,3.511,0.042,6.099V171.588z M239.879,92.987c-2.616,0-4.889-0.451-6.815-1.351
			c-1.928-0.9-3.46-2.074-4.6-3.523c-1.14-1.449-2.062-3.306-2.765-5.571c-0.703-2.264-1.188-4.529-1.455-6.794
			c-0.269-2.264-0.43-4.902-0.485-7.913c-0.085-2.363-0.085-4.726,0-7.089c0.084-2.813,0.274-5.31,0.569-7.491
			c0.295-2.18,0.809-4.297,1.54-6.351c0.731-2.053,1.681-3.741,2.849-5.064c1.167-1.322,2.701-2.384,4.6-3.186
			c1.899-0.802,4.115-1.203,6.646-1.203c2.307,0,4.34,0.303,6.099,0.907c1.758,0.605,3.221,1.519,4.389,2.743
			c1.167,1.224,2.138,2.582,2.911,4.072c0.773,1.491,1.357,3.299,1.752,5.422c0.394,2.125,0.668,4.213,0.822,6.267
			s0.232,4.417,0.232,7.089v1.266h-21.606v2.701c0,0.366,0,0.943,0,1.73c-0.057,1.042-0.063,2.118-0.021,3.229
			c0.043,1.112,0.092,2.202,0.148,3.271c0.056,1.069,0.211,2.089,0.464,3.06s0.562,1.822,0.929,2.553
			c0.365,0.731,0.879,1.308,1.54,1.73s1.441,0.633,2.342,0.633c1.125,0,2.054-0.217,2.785-0.654c0.731-0.436,1.272-1.09,1.625-1.962
			c0.352-0.872,0.598-1.744,0.738-2.616s0.225-1.969,0.254-3.292v-2.279h10.719v2.152c-0.254,5.768-1.675,10.128-4.263,13.082
			C249.232,91.51,245.252,92.987,239.879,92.987z M267.688,159.983l10.803,8.103c1.209,0.956,2.243,1.878,3.102,2.764
			c0.858,0.887,1.695,1.914,2.511,3.081c0.816,1.167,1.436,2.469,1.857,3.903s0.633,2.969,0.633,4.6
			c0,4.614-1.471,8.145-4.41,10.592c-2.939,2.448-6.872,3.672-11.795,3.672c-4.445,0-8.011-1.322-10.697-3.967
			c-2.688-2.645-4.522-6.077-5.507-10.297l8.103-2.701c1.94,5.402,4.642,8.103,8.102,8.103c1.716,0,3.045-0.471,3.988-1.413
			c0.942-0.942,1.414-2.272,1.414-3.988c0-2.504-0.901-4.585-2.701-6.246l-10.803-8.102c-1.21-0.816-2.224-1.583-3.039-2.3
			c-0.816-0.718-1.646-1.597-2.489-2.638c-0.845-1.041-1.484-2.208-1.921-3.503c-0.437-1.294-0.653-2.7-0.653-4.22
			c0-4.614,1.47-8.145,4.409-10.593c2.939-2.447,6.872-3.671,11.795-3.671c2.335,0,4.445,0.373,6.33,1.118
			c1.885,0.746,3.467,1.794,4.748,3.144c1.279,1.351,2.335,2.849,3.165,4.495c0.829,1.646,1.483,3.481,1.962,5.507l-8.103,2.7
			c-0.395-1.068-0.788-1.989-1.182-2.764c-0.395-0.773-0.922-1.61-1.582-2.511c-0.661-0.9-1.442-1.597-2.343-2.089
			s-1.898-0.738-2.996-0.738c-1.716,0-3.045,0.471-3.987,1.413c-0.943,0.943-1.414,2.272-1.414,3.988
			C264.987,157.113,265.888,158.633,267.688,159.983z M288.282,49.563c-1.997-0.787-3.995-1.182-5.992-1.182
			c-2.251,0-4.065,0.675-5.443,2.026c-1.379,1.35-2.068,3.137-2.068,5.359v36.46h-10.803V38.212h10.803v7.216
			c1.098-2.138,2.694-4.001,4.79-5.591c2.096-1.589,4.424-2.384,6.984-2.384c0.084,0,0.66,0.057,1.729,0.169V49.563z"/>
	</g>
</g>
</svg>
